<?xml version="1.0" encoding="iso-8859-1"?>
<!-- Generator: Adobe Illustrator 19.0.0, SVG Export Plug-In . SVG Version: 6.00 Build 0)  -->
<svg xmlns="http://www.w3.org/2000/svg" xmlns:xlink="http://www.w3.org/1999/xlink" version="1.1" id="Capa_1" x="0px" y="0px" viewBox="0 0 296.457 296.457" style="enable-background:new 0 0 296.457 296.457;" xml:space="preserve" width="512px" height="512px">
<g>
	<path d="M263.52,115.289C263.52,51.615,211.903,0,148.229,0C84.555,0,32.938,51.615,32.938,115.289   c0,45.985,26.756,85.676,65.698,104.184c-0.365,0.933-0.74,1.944-0.74,3.006v0.5c0,4.557,4.026,8.25,8.583,8.25h82.5   c4.557,0,7.917-3.693,7.917-8.25v-0.5c0-0.912,0.013-1.787-0.26-2.606C236.036,201.541,263.52,161.609,263.52,115.289z    M81.05,81.365c-1.411,2.78-4.224,4.383-7.142,4.383c-1.217,0-2.452-0.279-3.612-0.867c-3.94-1.999-5.515-6.813-3.516-10.754   c8.744-17.235,23.051-31.541,40.286-40.284c3.944-1.997,8.755-0.424,10.754,3.516c1.999,3.94,0.425,8.755-3.516,10.754   C100.077,55.329,88.267,67.139,81.05,81.365z" fill="#FFDA44"/>
	<path d="M188.979,247.229h-82.5c-4.557,0-8.583,3.693-8.583,8.25v0.5c0,4.473,4,8.104,8,8.237v1.013c0,8.284,7.049,15,15.333,15   h3.7c3.5,9.474,12.611,16.229,23.299,16.229c10.69,0,19.801-6.755,23.301-16.229h2.7c8.284,0,14.667-6.716,14.667-15v-1.013   c5-0.134,8-3.765,8-8.237v-0.5C196.895,250.922,193.535,247.229,188.979,247.229z" fill="#FFDA44"/>
</g>
<g>
</g>
<g>
</g>
<g>
</g>
<g>
</g>
<g>
</g>
<g>
</g>
<g>
</g>
<g>
</g>
<g>
</g>
<g>
</g>
<g>
</g>
<g>
</g>
<g>
</g>
<g>
</g>
<g>
</g>
</svg>
