<?xml version="1.0" encoding="iso-8859-1"?>
<!-- Generator: Adobe Illustrator 19.0.0, SVG Export Plug-In . SVG Version: 6.00 Build 0)  -->
<svg version="1.1" id="Capa_1" xmlns="http://www.w3.org/2000/svg" xmlns:xlink="http://www.w3.org/1999/xlink" x="0px" y="0px"
	 viewBox="0 0 512 512" style="enable-background:new 0 0 512 512;" xml:space="preserve">
<g>
	<g>
		<g>
			<path d="M155.229,267.792c-3.615,1.813-5.896,5.5-5.896,9.542v149.333c0,4.042,2.281,7.74,5.896,9.542
				C157.646,437.417,181,448,256.021,448s98.344-10.583,100.75-11.792c3.615-1.813,5.896-5.5,5.896-9.542V277.333
				c0-4.042-2.281-7.729-5.896-9.542C354.354,266.583,331.021,256,256,256S157.646,266.583,155.229,267.792z M341.333,419
				c-10.438,2.813-35.646,7.667-85.313,7.667c-49.771,0-75-4.875-85.354-7.656V285c10.448-2.813,35.656-7.667,85.333-7.667
				c49.771,0,74.99,4.875,85.333,7.656V419z"/>
			<path d="M234.667,192c0,11.76,9.573,21.333,21.333,21.333s21.333-9.573,21.333-21.333S267.76,170.667,256,170.667
				S234.667,180.24,234.667,192z"/>
			<path d="M437.333,0H74.667C68.771,0,64,4.771,64,10.667v42.667C64,59.229,68.771,64,74.667,64H224v43.51
				c-66.461,3.678-93.238,18.738-113.469,30.125l-3.833,2.156c-13.177,7.313-21.365,21.49-21.365,36.979v265.125
				c0,15.49,8.188,29.667,21.365,36.979l3.833,2.156C133.74,494.094,165.521,512,256,512s122.26-17.906,145.469-30.969l3.833-2.156
				c13.177-7.313,21.365-21.49,21.365-36.979V176.771c0-15.49-8.188-29.667-21.365-36.979l-3.833-2.156
				c-20.23-11.387-47.008-26.447-113.469-30.125V64h149.333C443.229,64,448,59.229,448,53.333V10.667C448,4.771,443.229,0,437.333,0
				z M391,156.229l3.948,2.208c6.406,3.563,10.385,10.583,10.385,18.333v265.125c0,7.75-3.979,14.771-10.385,18.333L391,462.438
				c-21.146,11.917-50.115,28.229-135,28.229s-113.854-16.313-135-28.229l-3.948-2.208c-6.406-3.563-10.385-10.583-10.385-18.333
				V176.771c0-7.75,3.979-14.771,10.385-18.333l3.948-2.208C142.146,144.313,171.115,128,256,128S369.854,144.313,391,156.229z
				 M245.333,106.801V64h21.333v42.801c-3.51-0.059-6.964-0.134-10.667-0.134S248.844,106.742,245.333,106.801z M426.667,42.667
				H85.333V21.333h341.333V42.667z"/>
		</g>
	</g>
</g>
<g>
</g>
<g>
</g>
<g>
</g>
<g>
</g>
<g>
</g>
<g>
</g>
<g>
</g>
<g>
</g>
<g>
</g>
<g>
</g>
<g>
</g>
<g>
</g>
<g>
</g>
<g>
</g>
<g>
</g>
</svg>
