<?xml version="1.0" encoding="iso-8859-1"?>
<!-- Generator: Adobe Illustrator 17.1.0, SVG Export Plug-In . SVG Version: 6.00 Build 0)  -->
<!DOCTYPE svg PUBLIC "-//W3C//DTD SVG 1.1//EN" "http://www.w3.org/Graphics/SVG/1.1/DTD/svg11.dtd">
<svg xmlns="http://www.w3.org/2000/svg" xmlns:xlink="http://www.w3.org/1999/xlink" version="1.1" id="Capa_1" x="0px" y="0px" viewBox="0 0 379.794 379.794" style="enable-background:new 0 0 379.794 379.794;" xml:space="preserve" width="512px" height="512px">
<path d="M305.901,163.69v-47.686C305.901,52.039,253.862,0,189.897,0S73.893,52.039,73.893,116.004v47.236  c-7.213,2.752-14.349,8.96-14.349,21.258v64.942c0,71.877,58.477,130.354,130.354,130.354S320.25,321.317,320.25,249.44v-64.942  C320.25,172.829,313.289,166.643,305.901,163.69z M214.673,303.232c0.408,2.162-1.058,3.931-3.258,3.931H168.87  c-2.2,0-3.666-1.769-3.258-3.931l6.814-36.114c-5.201-4.743-8.465-11.574-8.465-19.167c0-14.324,11.612-25.936,25.936-25.936  s25.936,11.612,25.936,25.936c0,7.387-3.093,14.047-8.049,18.771L214.673,303.232z M265.901,161.375H113.893v-45.371  c0-41.908,34.095-76.004,76.004-76.004c41.908,0,76.004,34.096,76.004,76.004V161.375z" fill="#D80027"/>
<g>
</g>
<g>
</g>
<g>
</g>
<g>
</g>
<g>
</g>
<g>
</g>
<g>
</g>
<g>
</g>
<g>
</g>
<g>
</g>
<g>
</g>
<g>
</g>
<g>
</g>
<g>
</g>
<g>
</g>
</svg>
