<?xml version="1.0" encoding="iso-8859-1"?>
<!-- Generator: Adobe Illustrator 19.0.0, SVG Export Plug-In . SVG Version: 6.00 Build 0)  -->
<svg version="1.1" id="Capa_1" xmlns="http://www.w3.org/2000/svg" xmlns:xlink="http://www.w3.org/1999/xlink" x="0px" y="0px"
	 viewBox="0 0 296.458 296.458" style="enable-background:new 0 0 296.458 296.458;" xml:space="preserve">
<g>
	<rect x="139.896" y="139.958" width="16" height="74"/>
	<path d="M123.896,112.624c0-6.415-5.152-11.635-11.69-11.635c-6.519,0-11.739,5.144-11.739,11.469c0,6.341,5.34,11.5,11.802,11.5
		h11.627V112.624z"/>
	<path d="M255.27,107.04C255.27,47.923,207.347,0,148.229,0C89.112,0,41.188,47.923,41.188,107.04
		c0,41.312,23.239,77.151,57.508,94.996c-0.407,0.977-0.8,2.048-0.8,3.172v0.5c0,4.557,4.026,8.25,8.583,8.25h17.417v-74h-11.627
		c-15.284,0-27.719-12.337-27.719-27.5c0-15.146,12.315-27.469,27.656-27.469c15.36,0,27.69,12.396,27.69,27.635v11.334h16v-11.334
		c0-15.238,12.681-27.635,28.064-27.635c15.354,0,27.927,12.322,27.927,27.469c0,15.163-12.342,27.5-27.614,27.5h-12.377v74h17.083
		c4.557,0,7.917-3.693,7.917-8.25v-0.5c0-0.96-0.006-1.878-0.307-2.734C231.317,184.78,255.27,148.689,255.27,107.04z"/>
	<path d="M195.97,112.458c0-6.324-5.48-11.469-12.01-11.469c-6.561,0-12.064,5.22-12.064,11.635v11.334h12.377
		C190.723,123.958,195.97,118.799,195.97,112.458z"/>
	<path d="M113.229,229.958c-8.284,0-15.333,6.716-15.333,15v20c0,8.284,7.049,15,15.333,15h11.605
		c3.426,9.615,12.605,16.5,23.394,16.5c10.791,0,19.971-6.885,23.396-16.5h9.605c8.284,0,14.667-6.716,14.667-15v-20
		c0-8.284-6.383-15-14.667-15H113.229z"/>
</g>
<g>
</g>
<g>
</g>
<g>
</g>
<g>
</g>
<g>
</g>
<g>
</g>
<g>
</g>
<g>
</g>
<g>
</g>
<g>
</g>
<g>
</g>
<g>
</g>
<g>
</g>
<g>
</g>
<g>
</g>
</svg>
